<?xml version="1.0" encoding="iso-8859-1"?>
<!-- Generator: Adobe Illustrator 19.0.0, SVG Export Plug-In . SVG Version: 6.00 Build 0)  -->
<svg version="1.1" id="Layer_1" xmlns="http://www.w3.org/2000/svg" xmlns:xlink="http://www.w3.org/1999/xlink" x="0px" y="0px"
	 viewBox="0 0 512 512" style="enable-background:new 0 0 512 512;" xml:space="preserve">
<circle style="fill:#D0FFF0;" cx="256" cy="256" r="256"/>
<g style="opacity:0.6;">
	<path style="fill:#FFFFFF;" d="M193,50c-1.574,0-3.061,0.31-4.487,0.759C183.998,44.268,176.507,40,168,40
		s-15.998,4.268-20.513,10.759C146.061,50.31,144.574,50,143,50c-8.284,0-15,6.716-15,15h80C208,56.716,201.284,50,193,50z"/>
</g>
<g style="opacity:0.6;">
	<path style="fill:#FFFFFF;" d="M304,143.94c0-8.327,6.75-15.077,15.077-15.077c1.257,0,2.458,0.199,3.625,0.489
		c3.934-4.249,9.512-6.95,15.759-6.95c11.895,0,21.538,9.643,21.538,21.538H304z"/>
</g>
<path style="fill:#BFE8DC;" d="M48,232c0,0,88-56,96-56s40,16,40,16s64-32,72-32s72,40,72,40v40H48V232z"/>
<path style="fill:#64AFC7;" d="M0,256c0,141.385,114.615,256,256,256s256-114.615,256-256c0-5.379-0.221-10.704-0.548-16H0.548
	C0.221,245.296,0,250.621,0,256z"/>
<path style="fill:#82A5A0;" d="M272.667,395.333C257.333,386,259.333,381.5,248,377.5s-37.289-9.707-44.667-20.833
	c-5.083-7.667-3.382-17.137,7.333-18c17.583-1.417,28.75-15.333,42.833-20.417c9.659-3.486,21.782-13.414,11.5-19.25
	c-9.25-5.25-25.333-7.333-25.333-7.333L235.5,312l-61,29l0.5,27.5c0,0,101.5,52,104,52.5c1.865,0.373,95.806,19.662,143.422,29.439
	c8.441-7.232,16.432-14.969,23.867-23.227C408.514,423.057,286.513,403.761,272.667,395.333z"/>
<path style="fill:#64C8D7;" d="M471.491,301.992c7.512,5.297-0.824,16.674-19.158,17.341c-27.699,1.007-146.983-27.608-106-41
	C396.248,262.023,471.491,301.992,471.491,301.992z"/>
<path style="fill:#AFD2C8;" d="M288,248H112l13.5-20l93.876-14.443c2.381-0.366,4.815-0.154,7.096,0.619L285,234L288,248z"/>
<path style="fill:#84D27E;" d="M264.667,250h-122l2.833-9l46.016-6.378c2.981-0.413,5.998-0.502,8.998-0.265l25.8,2.037
	c5.081,0.401,10.193-0.134,15.081-1.578l5.95-1.758c5.704-1.685,11.703-2.13,17.593-1.303L284.5,234.5L264.667,250z"/>
<path style="fill:#96BEB4;" d="M322,170.667c-1.691,0.291-63.875,79.736-56.667,86.667c14.961,14.387,193.724,38.691,242.391,45.077
	C510.484,287.351,512,271.856,512,256c0-65.817-24.858-125.815-65.672-171.168C436.5,82.75,421,85.333,391,102
	C385.143,105.254,352,165.5,322,170.667z"/>
<path style="fill:#82A5A0;" d="M456.425,295.405L441,149.5c0,0-38.5,32-39,35.5s-7,27.5-11,29.5s-31,13-31,17.5
	s-0.666,27.333-4,30.667c-3.25,3.25-28.625,3.352-37.931,10.146C358.455,280.968,413.861,289.376,456.425,295.405z"/>
<path style="fill:#6EAA64;" d="M174.81,206.167l-10.964,38.375L149.976,196l-9.821,34.375l-16.345-57.208l-18.048,63.167L79.667,145
	l-19.214,67.25L41,144.167l-12.393,43.375l-8.734-30.568C7.082,187.437,0,220.89,0,256c0,16.239,1.58,32.101,4.47,47.5h198.149
	L174.81,206.167z"/>
<path style="fill:#73BE6E;" d="M439.391,434.532c-134.057,5.801-310.305-61.811-255.724-98.199c24-16,82.222-22.445,64.333-40.333
	c-16-16-140-54-247.274-58.334C0.296,243.729,0,249.828,0,256c0,141.385,114.615,256,256,256
	C327.928,512,392.887,482.294,439.391,434.532z"/>
<path style="fill:#84D27E;" d="M216,305.5c0,11.341-33.787,20.452-33.399,43.324c0.479-4.482,3.364-8.8,9.399-12.824
	c24-16,73.889-22.112,56-40c-16-16-140-54-247.274-58.334C0.296,243.729,0,249.828,0,256c0,1.397,0.083,2.773,0.105,4.165
	C108.667,265.333,216,288,216,305.5z"/>
<g>
	<path style="fill:#6EAA64;" d="M256,512c71.928,0,136.887-29.706,183.391-77.468c-55.647-1.265-223.88-10.155-340.724-79.199
		C69.333,338,40,305.333,3.574,298.48C23.818,419.637,129.095,512,256,512z"/>
	<polygon style="fill:#6EAA64;" points="102.917,166.021 76.357,258.979 129.476,258.979 	"/>
</g>
<polygon style="fill:#73BE6E;" points="102.917,166.021 96.277,189.26 116.196,258.979 129.476,258.979 "/>
<polygon style="fill:#6EAA64;" points="61.667,150.333 25.857,275.667 97.476,275.667 "/>
<polygon style="fill:#73BE6E;" points="61.667,150.333 52.714,181.667 79.571,275.667 97.476,275.667 "/>
<path style="fill:#AFD2C8;" d="M387.667,101c-2.408,1.204-30.167,21.5-33.667,25.5s-1,9.5-3.5,15
	c-1.722,3.789-14.12,18.016-21.669,26.502c-4.3-2.02-8.265-3.382-10.165-2.669c-5.333,2-74.667,91.333-72,92.667
	c2.667,1.333,32.333,7,36.333,5s23-45,28-44s1,38,12,29c9.302-7.611,18.461-52.877,21.722-66.524
	c3.778-15.809,16.363-36.339,25.944-47.143c15.667-17.667,40.717-41.068,41.667-42.333C413.833,90,392,98.833,387.667,101z"/>
<path style="fill:#BEE1EB;" d="M484.846,141.193c-8.167-16.238-18.039-31.462-29.332-45.498L386.99,284.993
	c0.02,0.003,0.037,0.006,0.057,0.009c3.476,0.556,6.955,1.105,10.43,1.648c0.104,0.016,0.207,0.032,0.31,0.048
	c3.396,0.531,6.785,1.055,10.159,1.572c0.164,0.025,0.328,0.05,0.492,0.075c3.271,0.501,6.529,0.996,9.764,1.482
	c0.295,0.044,0.588,0.088,0.883,0.132c3.046,0.458,6.067,0.908,9.063,1.352c0.478,0.071,0.956,0.141,1.431,0.211
	c2.86,0.422,5.689,0.836,8.488,1.244c0.518,0.076,1.041,0.152,1.557,0.227c2.719,0.395,5.396,0.781,8.043,1.161
	c0.539,0.077,1.088,0.157,1.625,0.233c2.631,0.377,5.211,0.744,7.755,1.104c0.534,0.076,1.083,0.154,1.612,0.229
	c2.697,0.381,5.335,0.751,7.914,1.111c0.207,0.029,0.424,0.06,0.629,0.088L484.846,141.193z"/>
<path style="fill:#FFFFFF;" d="M472.121,118.882c-4.259-6.682-8.854-13.123-13.693-19.368
	c-5.604,19.733-19.701,70.015-18.094,70.819c2,1,13.999-28.666,13.999-28.666L440,230.333L472.121,118.882z"/>
<path style="fill:#A7DAE6;" d="M480.617,133.322l-35.559,160.457c0.865,0.125,1.75,0.253,2.607,0.376
	c0.539,0.077,1.088,0.157,1.625,0.233c2.631,0.377,5.211,0.744,7.755,1.104c0.534,0.076,1.083,0.154,1.612,0.229
	c2.697,0.381,5.335,0.751,7.914,1.111c0.207,0.029,0.424,0.06,0.629,0.088l17.645-155.728
	C483.505,138.527,482.048,135.933,480.617,133.322z"/>
<g>
	<path style="fill:#91D4E1;" d="M416.333,282c0,0,24.667-96.833,22.667-98.333s-37.667,94.667-37.667,94.667L416.333,282z"/>
	<path style="fill:#91D4E1;" d="M438,287l35.357-166.087c-0.692-1.109-1.333-2.252-2.042-3.349C456.76,166.787,420,286,420,286
		L438,287z"/>
	<path style="fill:#91D4E1;" d="M453.334,294.667l28.738-158.636c-1.047-1.964-2.064-3.946-3.16-5.879
		C466.942,177.227,433.75,292.5,433.75,292.5L453.334,294.667z"/>
</g>
<path style="fill:#FFFFFF;" d="M455.5,304L367,288c0,0,3.667-10.833,16.5-8.833c0,0,7.667-9,17.333-4.667c0,0,14-8.167,20.167,2.5
	c0,0,9.667-6.667,15.5,1.333C436.5,278.333,461.833,281.5,455.5,304z"/>
<path style="fill:#AFD2C8;" d="M510.996,234c0,0-16.291-0.693-21.662,0c-10.334,1.333-19.001,6.333-26,14
	c-7.317,8.015-23.334,50-20,54.667c2.693,3.771,45.426,10.152,61.726,12.462C509.551,296.14,512,276.361,512,256
	C512,248.582,511.613,241.258,510.996,234z"/>
<g>
	<path style="fill:#96BEB4;" d="M449.154,305.16c12.777,3.644,42.828,8.116,55.905,9.969C509.551,296.14,512,276.361,512,256
		c0-4.655-0.191-9.262-0.457-13.851c-12.256-0.345-28.183-0.4-28.877,8.851c-1,13.333-1.69,28.255-7.332,30
		C467.25,283.5,455.25,290,449.154,305.16z"/>
	<path style="fill:#96BEB4;" d="M296.075,270.897c-1.947,3.823,0.264,8.433,4.473,9.264c16.489,3.257,43.99,8.838,47.656,5.172
		c1.414-1.414-4.204-47-15.871-47.333c-11.667-0.333-16.667,1.333-20.667,5.333C308.929,246.071,300.881,261.46,296.075,270.897z"/>
</g>
<path style="fill:#AFD2C8;" d="M332.333,238c-11.667-0.333-16.667,1.333-20.667,5.333c-2.738,2.738-10.786,18.126-15.592,27.564
	c-1.947,3.823,0.264,8.433,4.473,9.264c1.066,0.21,2.206,0.432,3.396,0.659c0.515-2.381,1.193-5.196,2.056-8.154
	c2.333-8,11-9.333,14.333-16.333c2.81-5.902,10.589-12.685,17.758-14.089C336.356,239.679,334.44,238.06,332.333,238z"/>
<path style="fill:#64C8D7;" d="M495.93,345.381C381.5,331.5,318.833,315,288.5,301c9.667,18,0.167,27-14.5,41.667
	c-14.73,14.73,93.878,61.086,108.833,52.5c2.73-1.568-8.5-9-3.333-12.667c6.333-4.495,57.5,16.5,81.141,27.306
	C475.318,390.309,487.26,368.643,495.93,345.381z"/>
<path style="fill:#96BEB4;" d="M192,336c24-16,73.889-22.112,56-40c-4.091-4.091-15.275-9.624-31.402-15.661
	c15.33,7.887,18.07,17.326,14.402,24.994c-3.667,7.667-21.333,5.667-32,11c-9.201,4.6-17.331,12.868-24.667,18
	c-5.187,3.629-20.045,8.742-22.333,13c-13.817,25.715,47.113,54.089,116.414,76.349c32.282,10.369,70.381,10.988,99.586,17.817
	c6.187,1.447,8.152,11.217,13.836,12.457c10.838,2.364,20.646,4.335,28.981,5.857c10.14-7.719,19.698-16.166,28.573-25.281
	C328.333,417,263.333,411,206.667,383.333c-15.881-7.753-15.453-18.051-20.333-26C181.467,349.407,181.766,342.823,192,336z"/>
<g style="opacity:0.6;">
	<path style="fill:#FFFFFF;" d="M340,44c-1.259,0-2.449,0.248-3.589,0.607C332.798,39.414,326.805,36,320,36
		s-12.798,3.414-16.411,8.607C302.449,44.248,301.259,44,300,44c-6.627,0-12,5.373-12,12h64C352,49.373,346.627,44,340,44z"/>
</g>
<g style="opacity:0.6;">
	<path style="fill:#FFFFFF;" d="M160,143h48c0-4.971-4.029-9-9-9c-0.944,0-1.837,0.186-2.692,0.456
		C193.599,130.561,189.104,128,184,128c-1.043,0-2.038,0.173-3.02,0.376c-1.596-1.44-3.662-2.376-5.98-2.376
		c-0.944,0-1.837,0.186-2.692,0.456C169.599,122.561,165.104,120,160,120s-9.599,2.561-12.308,6.456
		c-0.855-0.27-1.748-0.456-2.692-0.456c-4.971,0-9,4.029-9,9h29.062C162.091,136.47,160,139.461,160,143z"/>
</g>
<g>
	<path style="fill:#FFFFFF;" d="M220.645,113.906c0-10.015,8.119-18.134,18.134-18.134c1.512,0,2.957,0.239,4.361,0.588
		c4.732-5.11,11.441-8.359,18.955-8.359C276.402,88,288,99.598,288,113.906H220.645z"/>
	<path style="fill:#FFFFFF;" d="M63.955,86.814H192c0-14.912-12.088-27-27-27c-2.833,0-5.51,0.558-8.076,1.367
		C148.796,49.497,135.312,41.814,120,41.814c-1.561,0-3.088,0.132-4.607,0.288C96.305,54.675,79.016,69.731,63.955,86.814z"/>
</g>
<g>
</g>
<g>
</g>
<g>
</g>
<g>
</g>
<g>
</g>
<g>
</g>
<g>
</g>
<g>
</g>
<g>
</g>
<g>
</g>
<g>
</g>
<g>
</g>
<g>
</g>
<g>
</g>
<g>
</g>
</svg>
