<?xml version="1.0" encoding="iso-8859-1"?>
<!-- Generator: Adobe Illustrator 18.1.1, SVG Export Plug-In . SVG Version: 6.00 Build 0)  -->
<svg version="1.1" id="Capa_1" xmlns="http://www.w3.org/2000/svg" xmlns:xlink="http://www.w3.org/1999/xlink" x="0px" y="0px"
	 viewBox="0 0 25.152 25.152" style="enable-background:new 0 0 25.152 25.152;" xml:space="preserve">
<g>
	<path style="fill:#030104;" d="M12.575,13.713c-4.725,0-8.68-1.385-9.761-3.26C2.623,10.785,2.51,11.127,2.51,11.48v3.062
		c0,2.367,4.506,4.283,10.065,4.283s10.066-1.916,10.066-4.283V11.48c0-0.354-0.113-0.695-0.305-1.027
		C21.256,12.328,17.302,13.713,12.575,13.713z"/>
	<path style="fill:#030104;" d="M12.575,20.039c-4.725,0-8.68-1.391-9.761-3.258c-0.191,0.328-0.304,0.668-0.304,1.024v3.064
		c0,2.365,4.506,4.283,10.065,4.283s10.066-1.918,10.066-4.283v-3.064c0-0.355-0.113-0.695-0.305-1.023
		C21.256,18.648,17.302,20.039,12.575,20.039z"/>
	<path style="fill:#030104;" d="M22.365,4.334c-0.195,1.732-4.496,3.119-9.789,3.119c-5.291,0-9.594-1.387-9.789-3.119
		C2.615,4.65,2.51,4.977,2.51,5.314v3.061c0,2.369,4.506,4.283,10.065,4.283s10.066-1.914,10.066-4.283V5.314
		C22.642,4.977,22.538,4.65,22.365,4.334z"/>
	<ellipse style="fill:#030104;" cx="12.576" cy="3.241" rx="9.807" ry="3.241"/>
</g>
<g>
</g>
<g>
</g>
<g>
</g>
<g>
</g>
<g>
</g>
<g>
</g>
<g>
</g>
<g>
</g>
<g>
</g>
<g>
</g>
<g>
</g>
<g>
</g>
<g>
</g>
<g>
</g>
<g>
</g>
</svg>
